<svg width="40" height="40" viewBox="0 0 40 40" fill="none" xmlns="http://www.w3.org/2000/svg">
<path d="M28.3334 28.3334H25V38.3334H21.6667V28.3334H18.1334L15.5667 31.55L19.5167 35.4834L17.15 37.85L13.2167 33.9C12.6334 33.3334 12.3 32.55 12.25 31.7334C12.2 30.9167 12.45 30.1 12.9667 29.4667L13.8667 28.3334H11.6667L15 21.6667V16.6667C13.9667 17.45 13.1334 18.45 12.55 19.6C11.9667 20.7667 11.6667 22.0334 11.6667 23.3334H8.33337C8.33337 20.2392 9.56254 17.2717 11.7505 15.0838C13.9384 12.8959 16.9058 11.6667 20 11.6667C22.2167 11.6667 24.3334 10.7834 25.9 9.23337C27.45 7.66671 28.3334 5.55004 28.3334 3.33337H31.6667C31.6667 5.53337 31.0334 7.70004 29.85 9.55004C28.672 11.4127 26.9904 12.9036 25 13.85V21.6667L28.3334 28.3334ZM23.3334 6.66671C23.3334 7.33337 23.1334 7.96671 22.7667 8.51671C22.4 9.06671 21.8834 9.50004 21.2834 9.75004C20.6732 10.0011 20.0022 10.0655 19.3554 9.93495C18.7086 9.80441 18.1151 9.48483 17.65 9.01671C17.1834 8.55004 16.8667 7.96671 16.7334 7.31671C16.6 6.66671 16.6667 6.00004 16.9167 5.40004C17.1667 4.78337 17.6 4.26671 18.15 3.90004C18.7 3.53337 19.3334 3.33337 20 3.33337C20.8834 3.33337 21.7334 3.68337 22.35 4.31671C22.9834 4.93337 23.3334 5.78337 23.3334 6.66671Z" fill="white"/>
</svg>
